<?xml version="1.0" encoding="UTF-8"?>
<svg xmlns="http://www.w3.org/2000/svg" xmlns:xlink="http://www.w3.org/1999/xlink" width="100pt" height="100pt" viewBox="0 0 100 100" version="1.1">
<g id="surface229493">
<path style=" stroke:none;fill-rule:nonzero;fill-opacity:1;" d="M 48.4375 3.125 C 23.457031 3.125 3.125 23.457031 3.125 48.4375 C 3.125 68.199219 15.851562 85.039062 33.527344 91.21875 C 33.777344 91.394531 34.074219 91.503906 34.394531 91.511719 C 38.8125 92.957031 43.535156 93.75 48.4375 93.75 C 73.417969 93.75 93.75 73.417969 93.75 48.4375 C 93.75 23.457031 73.417969 3.125 48.4375 3.125 Z M 48.4375 6.25 C 71.699219 6.25 90.625 25.175781 90.625 48.4375 C 90.625 66.65625 79.015625 82.207031 62.8125 88.105469 C 62.640625 87.597656 62.5 86.847656 62.5 86.335938 L 62.5 78.125 C 62.5 74.855469 60.902344 71.289062 59.328125 68.898438 C 68 67.433594 77.910156 62.933594 77.910156 46.144531 C 77.910156 41.539062 76.472656 37.480469 73.632812 34.0625 C 74.253906 32.011719 75.023438 27.683594 72.875 22.253906 C 72.703125 21.820312 72.34375 21.484375 71.898438 21.335938 C 71.460938 21.203125 67.449219 20.160156 59.125 25.621094 C 55.738281 24.75 52.15625 24.296875 48.4375 24.285156 C 44.738281 24.296875 41.148438 24.75 37.773438 25.621094 C 29.449219 20.152344 25.425781 21.199219 24.992188 21.335938 C 24.546875 21.484375 24.1875 21.820312 24.015625 22.253906 C 21.863281 27.691406 22.632812 32.011719 23.265625 34.0625 C 20.417969 37.480469 18.976562 41.539062 18.976562 46.144531 C 18.976562 62.78125 28.710938 67.363281 37.3125 68.890625 C 36.230469 70.257812 35.09375 72.027344 34.59375 73.828125 C 32.371094 74.445312 27.820312 74.464844 24.761719 69.226562 C 24.652344 69.023438 21.980469 64.277344 16.707031 63.910156 C 15.867188 63.917969 13.746094 64.050781 13.230469 65.671875 C 12.664062 67.472656 14.65625 68.839844 15.507812 69.421875 C 15.5625 69.457031 15.648438 69.507812 15.703125 69.539062 C 15.800781 69.585938 18.078125 70.78125 19.773438 75.054688 C 20.128906 76.171875 23.234375 84.589844 34.386719 83.105469 C 34.394531 84.339844 34.386719 84.960938 34.375 85.457031 L 34.375 86.328125 C 34.375 86.835938 34.222656 87.597656 34.050781 88.09375 C 17.847656 82.195312 6.25 66.644531 6.25 48.4375 C 6.25 25.175781 25.175781 6.25 48.4375 6.25 Z M 48.058594 10.945312 C 41.96875 11.011719 35.945312 12.617188 30.640625 15.648438 C 29.890625 16.070312 29.625 17.027344 30.054688 17.773438 C 30.339844 18.28125 30.867188 18.566406 31.414062 18.566406 C 31.675781 18.566406 31.941406 18.5 32.183594 18.359375 C 38.648438 14.671875 46.277344 13.292969 53.65625 14.476562 C 54.503906 14.617188 55.304688 14.039062 55.445312 13.183594 C 55.578125 12.328125 55 11.53125 54.148438 11.390625 C 52.128906 11.066406 50.089844 10.917969 48.058594 10.945312 Z M 60.398438 13.105469 C 59.796875 13.128906 59.230469 13.511719 59.007812 14.117188 C 58.703125 14.929688 59.113281 15.828125 59.925781 16.132812 C 61.035156 16.546875 62.132812 17.023438 63.207031 17.558594 C 63.433594 17.675781 63.671875 17.730469 63.910156 17.730469 C 64.476562 17.730469 65.027344 17.417969 65.308594 16.871094 C 65.691406 16.105469 65.382812 15.160156 64.613281 14.769531 C 63.445312 14.183594 62.230469 13.652344 61.015625 13.203125 C 60.816406 13.128906 60.609375 13.097656 60.402344 13.105469 Z M 70.289062 24.292969 C 71.964844 29.230469 70.820312 32.804688 70.402344 33.820312 C 70.179688 34.382812 70.292969 35.023438 70.703125 35.46875 C 73.40625 38.425781 74.78125 42.015625 74.78125 46.140625 C 74.78125 61.980469 65.394531 65.160156 56.203125 66.179688 C 55.585938 66.246094 55.066406 66.675781 54.882812 67.265625 C 54.695312 67.859375 54.882812 68.503906 55.351562 68.914062 C 56.585938 69.96875 59.375 74.554688 59.375 78.125 L 59.375 86.335938 C 59.375 86.363281 59.382812 87.726562 59.828125 89.050781 C 56.203125 90.070312 52.386719 90.625 48.4375 90.625 C 44.484375 90.625 40.660156 90.0625 37.03125 89.042969 C 37.480469 87.714844 37.492188 86.351562 37.492188 86.328125 L 37.5 85.492188 C 37.507812 84.785156 37.519531 83.824219 37.5 81.242188 C 37.492188 80.769531 37.28125 80.328125 36.914062 80.027344 C 36.546875 79.734375 36.066406 79.625 35.601562 79.722656 C 25.109375 82.011719 22.839844 74.4375 22.753906 74.121094 C 22.734375 74.066406 22.71875 74.015625 22.699219 73.960938 C 21.199219 70.152344 19.21875 68.210938 18.042969 67.332031 C 20.585938 68.230469 22.007812 70.714844 22.046875 70.769531 C 26.179688 77.84375 33 78.027344 36.574219 76.429688 C 37.066406 76.207031 37.410156 75.75 37.480469 75.21875 C 37.800781 72.984375 40.253906 70.03125 41.492188 68.945312 C 41.957031 68.535156 42.140625 67.890625 41.949219 67.304688 C 41.765625 66.710938 41.253906 66.285156 40.644531 66.21875 C 31.476562 65.171875 22.101562 61.96875 22.101562 46.140625 C 22.101562 42.023438 23.472656 38.425781 26.191406 35.46875 C 26.597656 35.023438 26.714844 34.382812 26.484375 33.820312 C 26.066406 32.804688 24.914062 29.242188 26.585938 24.296875 C 27.917969 24.339844 31.160156 24.910156 36.613281 28.613281 C 36.992188 28.871094 37.476562 28.949219 37.914062 28.828125 C 41.179688 27.917969 44.824219 27.429688 48.4375 27.410156 C 52.0625 27.429688 55.707031 27.917969 58.976562 28.828125 C 59.417969 28.949219 59.894531 28.871094 60.273438 28.613281 C 65.757812 24.890625 69 24.335938 70.289062 24.292969 Z M 33.398438 53.742188 C 32.789062 53.667969 32.171875 53.949219 31.855469 54.511719 L 30.292969 57.214844 C 29.859375 57.964844 30.113281 58.917969 30.859375 59.351562 C 31.101562 59.492188 31.371094 59.558594 31.640625 59.558594 C 32.175781 59.558594 32.703125 59.277344 32.988281 58.777344 L 34.550781 56.074219 C 34.984375 55.328125 34.734375 54.371094 33.984375 53.9375 C 33.796875 53.832031 33.601562 53.765625 33.398438 53.742188 Z M 63.476562 53.742188 C 63.273438 53.765625 63.074219 53.832031 62.890625 53.9375 C 62.140625 54.371094 61.890625 55.328125 62.324219 56.078125 L 63.886719 58.78125 C 64.171875 59.285156 64.699219 59.5625 65.234375 59.5625 C 65.503906 59.5625 65.773438 59.492188 66.015625 59.351562 C 66.765625 58.917969 67.015625 57.964844 66.582031 57.21875 L 65.019531 54.515625 C 64.699219 53.957031 64.082031 53.667969 63.476562 53.742188 Z M 56.542969 56.789062 C 56.339844 56.757812 56.128906 56.769531 55.914062 56.828125 C 55.085938 57.050781 54.589844 57.902344 54.808594 58.742188 L 55.621094 61.761719 C 55.808594 62.457031 56.4375 62.914062 57.128906 62.914062 C 57.269531 62.914062 57.402344 62.898438 57.539062 62.867188 C 58.367188 62.640625 58.867188 61.785156 58.644531 60.949219 L 57.835938 57.933594 C 57.667969 57.304688 57.140625 56.871094 56.542969 56.789062 Z M 40.339844 56.789062 C 39.734375 56.871094 39.207031 57.304688 39.039062 57.933594 L 38.234375 60.957031 C 38.007812 61.785156 38.507812 62.640625 39.335938 62.867188 C 39.472656 62.902344 39.605469 62.914062 39.746094 62.914062 C 40.429688 62.914062 41.066406 62.457031 41.253906 61.761719 L 42.066406 58.738281 C 42.285156 57.910156 41.789062 57.050781 40.960938 56.828125 C 40.746094 56.769531 40.539062 56.761719 40.339844 56.785156 Z M 48.4375 57.8125 C 47.570312 57.8125 46.875 58.507812 46.875 59.375 L 46.875 62.5 C 46.875 63.367188 47.570312 64.0625 48.4375 64.0625 C 49.304688 64.0625 50 63.367188 50 62.5 L 50 59.375 C 50 58.507812 49.304688 57.8125 48.4375 57.8125 Z M 48.4375 57.8125 "/>
</g>
</svg>
